<svg width="1647" height="998" viewBox="0 0 1647 998" fill="none" xmlns="http://www.w3.org/2000/svg">
<path opacity="0.032" d="M85.5015 454.085C246.254 733.737 745.77 985.724 1183.09 985.257C1620.41 984.802 1753.47 732.066 1507.99 452.416C1288.56 202.512 838.021 18.9928 481.495 19.4504C124.977 19.9179 -58.2241 204.184 85.5015 454.085Z" stroke="#ddd6fe" stroke-miterlimit="10"/>
<path opacity="0.065" d="M120.724 459.93C276.838 730.26 759.946 973.448 1182.27 972.516C1604.62 971.604 1732.36 726.92 1494.38 456.59C1281.57 215.019 845.782 37.9911 501.514 38.9026C157.264 39.8369 -18.9318 218.361 120.724 459.93Z" stroke="#ddd6fe" stroke-miterlimit="10"/>
<path opacity="0.097" d="M155.944 465.774C307.42 726.782 774.12 961.172 1181.46 959.773C1588.82 958.405 1711.25 721.771 1480.76 460.763C1274.57 227.522 853.542 56.9856 521.531 58.3527C189.547 59.7544 20.3601 232.533 155.944 465.774Z" stroke="#ddd6fe" stroke-miterlimit="10"/>
<path opacity="0.129" d="M191.165 471.619C338.002 723.304 788.296 948.896 1180.64 947.031C1573.03 945.207 1690.14 716.623 1467.14 464.938C1267.58 240.026 861.302 75.9814 541.55 77.8042C221.831 79.6727 59.6522 246.707 191.165 471.619Z" stroke="#ddd6fe" stroke-miterlimit="10"/>
<path opacity="0.161" d="M226.386 477.463C368.584 719.827 802.469 936.62 1179.83 934.288C1557.23 932.009 1669.03 711.476 1453.52 469.111C1260.58 252.53 869.062 94.9766 561.567 97.2552C254.116 99.5874 98.944 260.882 226.386 477.463Z" stroke="#ddd6fe" stroke-miterlimit="10"/>
<path opacity="0.194" d="M261.608 483.306C399.168 716.349 816.644 924.345 1179.01 921.545C1541.44 918.81 1647.92 706.329 1439.9 473.285C1253.59 265.033 876.822 113.971 581.587 116.706C286.401 119.504 138.236 275.055 261.608 483.306Z" stroke="#ddd6fe" stroke-miterlimit="10"/>
<path opacity="0.226" d="M296.829 489.152C429.751 712.873 830.818 912.068 1178.2 908.804C1525.64 905.613 1626.81 701.181 1426.28 477.46C1246.59 277.539 884.583 132.968 601.605 136.16C318.686 139.423 177.528 289.23 296.829 489.152Z" stroke="#ddd6fe" stroke-miterlimit="10"/>
<path opacity="0.258" d="M332.051 494.998C460.334 709.397 844.993 899.794 1177.38 896.063C1509.84 892.417 1605.7 696.035 1412.66 481.636C1239.6 290.045 892.345 151.967 621.624 155.611C350.972 159.341 216.821 303.405 332.051 494.998Z" stroke="#ddd6fe" stroke-miterlimit="10"/>
<path opacity="0.29" d="M367.271 500.839C490.916 705.917 859.167 887.516 1176.57 883.318C1494.05 879.216 1584.59 690.885 1399.05 485.808C1232.6 302.547 900.103 170.958 641.641 175.06C383.256 179.257 256.112 317.578 367.271 500.839Z" stroke="#ddd6fe" stroke-miterlimit="10"/>
<path opacity="0.323" d="M402.493 506.684C521.499 702.44 873.342 875.24 1175.75 870.578C1478.25 866.02 1563.48 685.739 1385.43 489.983C1225.61 315.052 907.864 189.955 661.659 194.513C415.541 199.176 295.404 331.753 402.493 506.684Z" stroke="#ddd6fe" stroke-miterlimit="10"/>
<path opacity="0.355" d="M437.713 512.529C552.082 698.963 887.515 862.965 1174.94 857.835C1462.46 852.821 1542.36 680.591 1371.81 494.157C1218.61 327.556 915.621 208.949 681.676 213.963C447.826 219.094 334.696 345.928 437.713 512.529Z" stroke="#ddd6fe" stroke-miterlimit="10"/>
<path opacity="0.387" d="M472.935 518.373C583.025 695.262 901.691 850.688 1174.12 845.091C1446.66 839.622 1521.25 675.442 1358.19 498.33C1211.62 340.058 923.385 227.945 701.696 233.414C480.111 239.01 374.309 359.902 472.935 518.373Z" stroke="#ddd6fe" stroke-miterlimit="10"/>
<path opacity="0.419" d="M508.157 524.217C613.635 691.764 915.867 838.412 1173.31 832.348C1430.87 826.424 1500.15 670.294 1344.57 502.504C1204.63 352.562 931.146 246.939 721.717 252.864C512.395 258.927 413.627 374.058 508.157 524.217Z" stroke="#ddd6fe" stroke-miterlimit="10"/>
<path opacity="0.452" d="M543.377 530.061C644.243 688.268 930.04 826.136 1172.49 819.607C1415.07 813.226 1479.03 665.147 1330.95 506.678C1197.63 365.066 938.905 265.935 741.737 272.32C544.681 278.846 452.942 388.215 543.377 530.061Z" stroke="#ddd6fe" stroke-miterlimit="10"/>
<path opacity="0.484" d="M578.598 535.905C674.851 684.768 944.214 813.86 1171.68 806.864C1399.28 800.027 1458.24 659.702 1317.33 510.852C1190.91 377.305 946.663 284.931 761.75 291.767C576.965 298.763 492.257 402.37 578.598 535.905Z" stroke="#ddd6fe" stroke-miterlimit="10"/>
<path opacity="0.516" d="M613.82 541.749C705.459 681.272 958.389 801.584 1170.86 794.121C1383.48 786.829 1437.15 654.534 1303.72 515.026C1183.94 389.79 954.428 303.925 781.771 311.218C609.251 318.68 531.571 416.525 613.82 541.749Z" stroke="#ddd6fe" stroke-miterlimit="10"/>
<path opacity="0.548" d="M649.04 547.594C736.065 677.771 972.564 789.308 1170.05 781.38C1367.69 773.631 1416.05 649.367 1290.1 519.2C1176.96 402.277 962.185 322.921 801.789 330.67C641.535 338.598 570.885 430.679 649.04 547.594Z" stroke="#ddd6fe" stroke-miterlimit="10"/>
<path opacity="0.581" d="M684.262 553.437C766.671 674.275 986.739 777.031 1169.23 768.637C1351.89 760.435 1394.96 644.2 1276.48 523.374C1169.98 414.762 969.944 341.917 821.807 350.121C673.818 358.515 610.197 444.835 684.262 553.437Z" stroke="#ddd6fe" stroke-miterlimit="10"/>
<path opacity="0.613" d="M719.483 559.283C797.274 670.775 1000.91 764.755 1168.42 755.895C1336.1 747.235 1373.86 639.033 1262.86 527.548C1162.99 427.248 977.706 360.912 841.825 369.572C706.105 378.433 649.507 458.989 719.483 559.283Z" stroke="#ddd6fe" stroke-miterlimit="10"/>
<path opacity="0.645" d="M754.704 565.127C827.874 667.276 1015.09 752.48 1167.6 743.153C1320.3 734.037 1352.76 633.866 1249.24 531.722C1156.01 439.735 985.469 379.908 861.843 389.026C738.391 398.351 688.816 473.144 754.704 565.127Z" stroke="#ddd6fe" stroke-miterlimit="10"/>
<path opacity="0.677" d="M789.925 570.97C858.472 663.778 1029.26 740.203 1166.79 730.409C1304.51 720.837 1331.66 628.697 1235.62 535.895C1149.03 452.219 993.226 398.902 881.862 408.473C770.675 418.267 728.121 487.295 789.925 570.97Z" stroke="#ddd6fe" stroke-miterlimit="10"/>
<path opacity="0.71" d="M825.147 576.814C889.067 660.274 1043.44 727.927 1165.98 717.666C1288.71 707.639 1310.56 623.531 1222.01 540.067C1142.04 464.704 1000.99 417.895 901.883 427.923C802.96 438.185 767.423 501.446 825.147 576.814Z" stroke="#ddd6fe" stroke-miterlimit="10"/>
<path opacity="0.742" d="M860.367 582.66C919.655 656.774 1057.61 715.652 1165.16 704.926C1272.91 694.442 1289.46 618.367 1208.39 544.244C1135.05 477.194 1008.75 436.894 921.898 447.377C835.244 458.104 806.722 515.599 860.367 582.66Z" stroke="#ddd6fe" stroke-miterlimit="10"/>
<path opacity="0.774" d="M895.589 588.503C950.238 653.271 1071.79 703.375 1164.34 692.182C1257.12 681.244 1268.35 613.201 1194.77 548.418C1128.06 489.68 1016.51 455.888 941.917 466.827C867.53 478.021 846.015 529.749 895.589 588.503Z" stroke="#ddd6fe" stroke-miterlimit="10"/>
<path opacity="0.806" d="M930.81 594.348C980.811 649.771 1085.96 691.103 1163.53 679.441C1241.33 668.046 1247.23 608.039 1181.15 552.593C1121.06 502.171 1024.24 474.738 961.936 486.28C899.787 497.792 885.298 543.899 930.81 594.348Z" stroke="#ddd6fe" stroke-miterlimit="10"/>
<path opacity="0.839" d="M966.031 600.192C1011.37 646.271 1100.11 678.67 1162.71 666.698C1225.5 654.692 1226.1 602.88 1167.53 556.766C1114.05 514.661 1031.99 493.724 981.955 505.73C932.062 517.701 924.569 558.052 966.031 600.192Z" stroke="#ddd6fe" stroke-miterlimit="10"/>
<path opacity="0.871" d="M1001.25 606.036C1041.91 642.778 1114.27 666.385 1161.9 653.956C1209.69 641.486 1204.96 597.727 1153.91 560.941C1107.03 527.158 1039.73 512.713 1001.97 525.182C964.33 537.609 963.822 572.209 1001.25 606.036Z" stroke="#ddd6fe" stroke-miterlimit="10"/>
<path opacity="0.903" d="M1036.47 611.879C1072.41 639.299 1128.42 654.099 1161.08 641.211C1193.87 628.277 1183.8 592.586 1140.29 565.115C1099.99 539.666 1047.46 531.706 1021.99 544.633C996.585 557.525 1003.05 586.375 1036.47 611.879Z" stroke="#ddd6fe" stroke-miterlimit="10"/>
<path opacity="0.935" d="M1071.69 617.724C1102.87 635.862 1142.54 641.836 1160.27 628.47C1178.02 615.089 1162.61 587.48 1126.67 569.288C1092.92 552.201 1055.17 550.726 1042.01 564.083C1028.81 577.472 1042.23 600.582 1071.69 617.724Z" stroke="#ddd6fe" stroke-miterlimit="10"/>
<path opacity="0.968" d="M1106.92 623.571C1133.28 632.53 1156.67 629.69 1159.45 615.731C1162.19 602.024 1141.37 582.455 1113.06 573.464C1085.81 564.815 1062.93 569.854 1062.03 583.537C1061.1 597.517 1081.36 614.885 1106.92 623.571Z" stroke="#ddd6fe" stroke-miterlimit="10"/>
<path d="M938.693 494.123C938.693 495.897 937.313 497.335 935.611 497.335C933.909 497.335 932.529 495.897 932.529 494.123C932.529 492.349 933.909 490.91 935.611 490.91C937.313 490.91 938.693 492.349 938.693 494.123Z" fill="#ddd6fe"/>
<path d="M777.345 456.077C777.345 457.515 776.227 458.681 774.847 458.681C773.467 458.681 772.349 457.515 772.349 456.077C772.349 454.639 773.467 453.473 774.847 453.473C776.227 453.473 777.345 454.639 777.345 456.077Z" fill="#ddd6fe"/>
<path opacity="0.4" d="M814.504 206.08C814.504 207.398 813.479 208.466 812.214 208.466C810.949 208.466 809.924 207.398 809.924 206.08C809.924 204.762 810.949 203.693 812.214 203.693C813.479 203.693 814.504 204.762 814.504 206.08Z" fill="#ddd6fe"/>
<path d="M625.571 323.12C625.571 324.558 624.452 325.724 623.073 325.724C621.693 325.724 620.574 324.558 620.574 323.12C620.574 321.683 621.693 320.517 623.073 320.517C624.452 320.517 625.571 321.683 625.571 323.12Z" fill="#ddd6fe"/>
<path opacity="0.4" d="M355.583 287.53C355.583 288.968 354.465 290.134 353.085 290.134C351.705 290.134 350.587 288.968 350.587 287.53C350.587 286.092 351.705 284.926 353.085 284.926C354.465 284.926 355.583 286.092 355.583 287.53Z" fill="#ddd6fe"/>
<path opacity="0.6" d="M402.2 401.965C402.2 403.403 401.082 404.569 399.702 404.569C398.322 404.569 397.204 403.403 397.204 401.965C397.204 400.527 398.322 399.361 399.702 399.361C401.082 399.361 402.2 400.527 402.2 401.965Z" fill="#ddd6fe"/>
<path opacity="0.6" d="M463.115 497.18C463.115 498.618 461.997 499.783 460.617 499.783C459.237 499.783 458.119 498.618 458.119 497.18C458.119 495.742 459.237 494.576 460.617 494.576C461.997 494.576 463.115 495.742 463.115 497.18Z" fill="#ddd6fe"/>
<path d="M1005 418.739L1008.04 416.789L1009.91 419.958L1006.87 421.908L1005 418.739Z" fill="#ddd6fe"/>
<path d="M731.416 528.683L733.024 525.451L736.258 527.211L734.65 530.443L731.416 528.683Z" fill="#ddd6fe"/>
<path d="M651.602 453.151L654.303 450.964L656.429 453.798L653.727 455.984L651.602 453.151Z" fill="#ddd6fe"/>
<path opacity="0.4" d="M891.747 191.174L894.811 189.533L896.367 192.713L893.303 194.355L891.747 191.174Z" fill="#ddd6fe"/>
<path d="M779.837 354.897L781.698 351.963L784.618 353.969L782.757 356.903L779.837 354.897Z" fill="#ddd6fe"/>
<path d="M973.866 304.687L976.894 302.978L978.519 306.125L975.492 307.833L973.866 304.687Z" fill="#ddd6fe"/>
<path d="M963.987 377.047L965.995 377.464L966.638 379.409L965.273 380.937L963.265 380.52L962.622 378.575L963.987 377.047Z" fill="#ddd6fe"/>
<path opacity="0.3" d="M599.339 219.313L601.346 219.729L601.989 221.674L600.625 223.203L598.617 222.786L597.974 220.841L599.339 219.313Z" fill="#ddd6fe"/>
</svg>
